<?xml version="1.0" encoding="UTF-8" standalone="no"?>
<svg
   width="1200"
   height="320"
   overflow="hidden"
   version="1.1"
   id="svg112"
   sodipodi:docname="rdf_properties.svg"
   inkscape:version="1.2 (dc2aedaf03, 2022-05-15)"
   xmlns:inkscape="http://www.inkscape.org/namespaces/inkscape"
   xmlns:sodipodi="http://sodipodi.sourceforge.net/DTD/sodipodi-0.dtd"
   xmlns="http://www.w3.org/2000/svg"
   xmlns:svg="http://www.w3.org/2000/svg">
  <sodipodi:namedview
     id="namedview114"
     pagecolor="#ffffff"
     bordercolor="#000000"
     borderopacity="0.25"
     inkscape:showpageshadow="2"
     inkscape:pageopacity="0.0"
     inkscape:pagecheckerboard="0"
     inkscape:deskcolor="#d1d1d1"
     showgrid="false"
     inkscape:zoom="1.3111111"
     inkscape:cx="762.33051"
     inkscape:cy="364.57627"
     inkscape:window-width="2560"
     inkscape:window-height="1494"
     inkscape:window-x="-11"
     inkscape:window-y="-11"
     inkscape:window-maximized="1"
     inkscape:current-layer="g110" />
  <defs
     id="defs20">
    <clipPath
       id="clip0">
      <rect
         x="0"
         y="0"
         width="1280"
         height="720"
         id="rect2" />
    </clipPath>
    <clipPath
       id="clip1">
      <rect
         x="172"
         y="93"
         width="137"
         height="203"
         id="rect5" />
    </clipPath>
    <clipPath
       id="clip2">
      <rect
         x="308"
         y="93"
         width="97"
         height="203"
         id="rect8" />
    </clipPath>
    <clipPath
       id="clip3">
      <rect
         x="404"
         y="93"
         width="129"
         height="203"
         id="rect11" />
    </clipPath>
    <clipPath
       id="clip4">
      <rect
         x="532"
         y="93"
         width="101"
         height="203"
         id="rect14" />
    </clipPath>
    <clipPath
       id="clip5">
      <rect
         x="532"
         y="181"
         width="101"
         height="202"
         id="rect17" />
    </clipPath>
  </defs>
  <g
     clip-path="url(#clip0)"
     id="g110">
    <path
       d="m 667.85594,95.028341 c 0,-13.977002 11.331,-25.308002 25.308,-25.308002 H 1102.546 c 13.98,0 25.31,11.331 25.31,25.308002 V 248.41234 c 0,13.977 -11.33,25.308 -25.31,25.308 H 693.16394 c -13.977,0 -25.308,-11.331 -25.308,-25.308 z"
       stroke="#000000"
       stroke-width="1.33333"
       stroke-miterlimit="8"
       stroke-dasharray="5.33333, 4"
       fill="none"
       fill-rule="evenodd"
       id="path24" />
    <path
       d="m 381.26894,113.31534 h 127.579 v 38.4 h -127.579 z"
       fill="#ffffff"
       fill-rule="evenodd"
       id="path26" />
    <path
       d="m 508.84794,113.31534 h 99.789 v 38.4 h -99.789 z"
       fill="#bdd7ee"
       fill-rule="evenodd"
       id="path28" />
    <path
       d="m 381.26894,151.71534 h 127.579 v 49.405 h -127.579 z"
       fill="#ffffff"
       fill-rule="evenodd"
       id="path30" />
    <path
       d="m 508.84794,151.71534 h 99.789 v 49.405 h -99.789 z"
       fill="#bdd7ee"
       fill-rule="evenodd"
       id="path32" />
    <path
       d="m 148.81994,201.12034 h 135.817 v 49.405 h -135.817 z"
       fill="#fff2cc"
       fill-rule="evenodd"
       id="path34" />
    <path
       d="m 284.63694,201.12034 h 96.632 v 49.405 h -96.632 z"
       fill="#fff2cc"
       fill-rule="evenodd"
       id="path36" />
    <path
       d="m 381.26894,201.12034 h 127.579 v 49.405 h -127.579 z"
       fill="#fff2cc"
       fill-rule="evenodd"
       id="path38" />
    <path
       d="m 508.84794,201.12034 h 99.789 v 49.405 h -99.789 z"
       fill="#c5e0b4"
       fill-rule="evenodd"
       id="path40" />
    <path
       d="m 284.63694,112.64834 v 138.544"
       stroke="#000000"
       stroke-width="1.33333"
       stroke-linejoin="round"
       stroke-miterlimit="10"
       fill="none"
       fill-rule="evenodd"
       id="path42" />
    <path
       d="m 381.26894,112.64834 v 138.544"
       stroke="#000000"
       stroke-width="1.33333"
       stroke-linejoin="round"
       stroke-miterlimit="10"
       fill="none"
       fill-rule="evenodd"
       id="path44" />
    <path
       d="m 508.84794,112.64834 v 138.544"
       stroke="#000000"
       stroke-width="1.33333"
       stroke-linejoin="round"
       stroke-miterlimit="10"
       fill="none"
       fill-rule="evenodd"
       id="path46" />
    <path
       d="m 148.15294,151.71534 h 461.151"
       stroke="#000000"
       stroke-width="1.33333"
       stroke-linejoin="round"
       stroke-miterlimit="10"
       fill="none"
       fill-rule="evenodd"
       id="path48" />
    <path
       d="m 148.15294,201.12034 h 461.151"
       stroke="#000000"
       stroke-width="1.33333"
       stroke-linejoin="round"
       stroke-miterlimit="10"
       fill="none"
       fill-rule="evenodd"
       id="path50" />
    <path
       d="m 148.81994,112.64834 v 138.544"
       stroke="#000000"
       stroke-width="1.33333"
       stroke-linejoin="round"
       stroke-miterlimit="10"
       fill="none"
       fill-rule="evenodd"
       id="path52" />
    <path
       d="m 608.63694,112.64834 v 138.544"
       stroke="#000000"
       stroke-width="1.33333"
       stroke-linejoin="round"
       stroke-miterlimit="10"
       fill="none"
       fill-rule="evenodd"
       id="path54" />
    <path
       d="m 148.15294,113.31534 h 461.151"
       stroke="#000000"
       stroke-width="1.33333"
       stroke-linejoin="round"
       stroke-miterlimit="10"
       fill="none"
       fill-rule="evenodd"
       id="path56" />
    <path
       d="m 148.15294,250.52534 h 461.151"
       stroke="#000000"
       stroke-width="1.33333"
       stroke-linejoin="round"
       stroke-miterlimit="10"
       fill="none"
       fill-rule="evenodd"
       id="path58" />
    <g
       clip-path="url(#clip1)"
       id="g62"
       transform="translate(-23.644068,-61.779661)">
      <text
         font-family="Calibri, Calibri_MSFontService, sans-serif"
         font-weight="700"
         font-size="24px"
         transform="translate(182.064,202)"
         id="text60">Date</text>
    </g>
    <g
       clip-path="url(#clip2)"
       id="g66"
       transform="translate(-23.644068,-61.779661)">
      <text
         font-family="Calibri, Calibri_MSFontService, sans-serif"
         font-weight="700"
         font-size="24px"
         transform="translate(317.881,202)"
         id="text64">Farmer</text>
    </g>
    <g
       clip-path="url(#clip3)"
       id="g70"
       transform="translate(-23.644068,-61.779661)">
      <text
         font-family="Calibri, Calibri_MSFontService, sans-serif"
         font-weight="700"
         font-size="24px"
         transform="translate(414.513,202)"
         id="text68">Product</text>
    </g>
    <g
       clip-path="url(#clip4)"
       id="g74"
       transform="translate(-23.644068,-61.779661)">
      <text
         font-family="Calibri, Calibri_MSFontService, sans-serif"
         font-weight="700"
         font-size="24px"
         transform="translate(542.092,202)"
         id="text72">Count</text>
    </g>
    <g
       clip-path="url(#clip5)"
       id="g78"
       transform="translate(-23.644068,-61.779661)">
      <text
         font-family="Calibri, Calibri_MSFontService, sans-serif"
         font-weight="400"
         font-size="24px"
         transform="translate(542.092,290)"
         id="text76">Object</text>
    </g>
    <path
       d="m 691.85594,191.22034 c 0,-32.861 31.116,-59.5 69.5,-59.5 38.384,0 69.5,26.639 69.5,59.5 0,32.861 -31.116,59.5 -69.5,59.5 -38.384,0 -69.5,-26.639 -69.5,-59.5 z"
       stroke="#000000"
       stroke-width="1.33333"
       stroke-miterlimit="8"
       fill="#fff2cc"
       fill-rule="evenodd"
       id="path80" />
    <text
       font-family="Calibri, Calibri_MSFontService, sans-serif"
       font-weight="400"
       font-size="24px"
       id="text84"
       x="722.67993"
       y="184.22034">Product <tspan
   font-size="24px"
   x="750.48663"
   y="213.22034"
   id="tspan82">ID</tspan></text>
    <path
       d="m 856.85594,190.05334 h 91.593 v 1.334 h -91.593 z m 90.26,-3.333 8,4 -8,4 z"
       fill="#4472c4"
       id="path86" />
    <rect
       x="979.85596"
       y="131.72034"
       width="121"
       height="119"
       stroke="#000000"
       stroke-width="1.33333"
       stroke-miterlimit="8"
       fill="#e2f0d9"
       id="rect88" />
    <text
       font-family="Calibri, Calibri_MSFontService, sans-serif"
       font-weight="400"
       font-size="24px"
       id="text100"
       x="1010.436"
       y="198.22034">Count<tspan
   fill="#4472c4"
   font-size="24px"
   x="857.03296"
   y="179.22034"
   id="tspan90">hasCount</tspan><tspan
   font-size="24px"
   x="723.33295"
   y="108.22034"
   id="tspan92">Subject</tspan><tspan
   font-size="24px"
   x="857.03296"
   y="108.22034"
   id="tspan94">Predicate</tspan><tspan
   font-size="24px"
   x="1005.363"
   y="108.22034"
   id="tspan96">Object</tspan><tspan
   font-size="24px"
   x="514.1709"
   y="79.220337"
   id="tspan98">Predicate</tspan></text>
    <path
       d="m 510.35594,104.22034 c 0,-4.970999 7.034,-8.999999 15.712,-8.999999 h 17.674 c 8.678,0 15.712,-4.030002 15.712,-9.000002 0,4.97 7.034,9.000002 15.712,9.000002 h 17.478 c 8.678,0 15.712,4.029 15.712,8.999999"
       stroke="#000000"
       stroke-width="2"
       stroke-miterlimit="8"
       fill="none"
       fill-rule="evenodd"
       id="path102" />
    <text
       font-family="Calibri, Calibri_MSFontService, sans-serif"
       font-weight="400"
       font-size="24px"
       id="text104"
       x="44.413433"
       y="231.22034">Subject</text>
    <path
       d="m 143.35594,246.22034 c -5.799,0 -10.5,-4.692 -10.5,-10.479 v -0.084 c 0,-5.787 -4.701,-10.479 -10.5,-10.479 5.799,0 10.5,-4.692 10.5,-10.479 v 0 c 0,-5.787 4.701,-10.479 10.5,-10.479"
       stroke="#000000"
       stroke-width="2"
       stroke-miterlimit="8"
       fill="none"
       fill-rule="evenodd"
       id="path106" />
    <text
       font-family="Calibri, Calibri_MSFontService, sans-serif"
       font-weight="700"
       font-size="24px"
       id="text108"
       x="869.38495"
       y="58.220341">Triple</text>
  </g>
</svg>
